<svg xmlns="http://www.w3.org/2000/svg" viewBox="0 0 480 270">
  <defs><radialGradient id="r2" cx="0.3" cy="0.2" r="1">
    <stop offset="0" stop-color="#10203a"/><stop offset="1" stop-color="#080b12"/></radialGradient>
    <linearGradient id="a2" x1="0" y1="0" x2="1" y2="1">
      <stop offset="0" stop-color="#7aa2ff"/><stop offset="1" stop-color="#7aa2ff"/></linearGradient></defs>
  <rect width="480" height="270" fill="url(#r2)"/>
  <g><polygon points="-2.60,-27.50 -22.52,-16.00 -42.44,-27.50 -42.44,-50.50 -22.52,-62.00 -2.60,-50.50" fill="none" stroke="#7aa2ff" stroke-opacity="0.10" stroke-width="2"/><polygon points="42.44,-27.50 22.52,-16.00 2.60,-27.50 2.60,-50.50 22.52,-62.00 42.44,-50.50" fill="none" stroke="#7aa2ff" stroke-opacity="0.10" stroke-width="2"/><polygon points="87.47,-27.50 67.55,-16.00 47.63,-27.50 47.63,-50.50 67.55,-62.00 87.47,-50.50" fill="none" stroke="#7aa2ff" stroke-opacity="0.10" stroke-width="2"/><polygon points="132.50,-27.50 112.58,-16.00 92.66,-27.50 92.66,-50.50 112.58,-62.00 132.50,-50.50" fill="none" stroke="#7aa2ff" stroke-opacity="0.10" stroke-width="2"/><polygon points="177.54,-27.50 157.62,-16.00 137.70,-27.50 137.70,-50.50 157.62,-62.00 177.54,-50.50" fill="none" stroke="#7aa2ff" stroke-opacity="0.10" stroke-width="2"/><polygon points="222.57,-27.50 202.65,-16.00 182.73,-27.50 182.73,-50.50 202.65,-62.00 222.57,-50.50" fill="none" stroke="#7aa2ff" stroke-opacity="0.10" stroke-width="2"/><polygon points="267.60,-27.50 247.68,-16.00 227.76,-27.50 227.76,-50.50 247.68,-62.00 267.60,-50.50" fill="none" stroke="#7aa2ff" stroke-opacity="0.10" stroke-width="2"/><polygon points="312.64,-27.50 292.72,-16.00 272.80,-27.50 272.80,-50.50 292.72,-62.00 312.64,-50.50" fill="none" stroke="#7aa2ff" stroke-opacity="0.10" stroke-width="2"/><polygon points="357.67,-27.50 337.75,-16.00 317.83,-27.50 317.83,-50.50 337.75,-62.00 357.67,-50.50" fill="none" stroke="#7aa2ff" stroke-opacity="0.10" stroke-width="2"/><polygon points="402.70,-27.50 382.78,-16.00 362.86,-27.50 362.86,-50.50 382.78,-62.00 402.70,-50.50" fill="none" stroke="#7aa2ff" stroke-opacity="0.10" stroke-width="2"/><polygon points="-25.11,11.50 -45.03,23.00 -64.95,11.50 -64.95,-11.50 -45.03,-23.00 -25.11,-11.50" fill="none" stroke="#7aa2ff" stroke-opacity="0.10" stroke-width="2"/><polygon points="19.92,11.50 0.00,23.00 -19.92,11.50 -19.92,-11.50 -0.00,-23.00 19.92,-11.50" fill="none" stroke="#7aa2ff" stroke-opacity="0.10" stroke-width="2"/><polygon points="64.95,11.50 45.03,23.00 25.11,11.50 25.11,-11.50 45.03,-23.00 64.95,-11.50" fill="none" stroke="#7aa2ff" stroke-opacity="0.10" stroke-width="2"/><polygon points="109.99,11.50 90.07,23.00 70.15,11.50 70.15,-11.50 90.07,-23.00 109.99,-11.50" fill="none" stroke="#7aa2ff" stroke-opacity="0.10" stroke-width="2"/><polygon points="155.02,11.50 135.10,23.00 115.18,11.50 115.18,-11.50 135.10,-23.00 155.02,-11.50" fill="none" stroke="#7aa2ff" stroke-opacity="0.10" stroke-width="2"/><polygon points="200.05,11.50 180.13,23.00 160.21,11.50 160.21,-11.50 180.13,-23.00 200.05,-11.50" fill="none" stroke="#7aa2ff" stroke-opacity="0.10" stroke-width="2"/><polygon points="245.09,11.50 225.17,23.00 205.25,11.50 205.25,-11.50 225.17,-23.00 245.09,-11.50" fill="none" stroke="#7aa2ff" stroke-opacity="0.10" stroke-width="2"/><polygon points="290.12,11.50 270.20,23.00 250.28,11.50 250.28,-11.50 270.20,-23.00 290.12,-11.50" fill="none" stroke="#7aa2ff" stroke-opacity="0.10" stroke-width="2"/><polygon points="335.15,11.50 315.23,23.00 295.31,11.50 295.31,-11.50 315.23,-23.00 335.15,-11.50" fill="none" stroke="#7aa2ff" stroke-opacity="0.10" stroke-width="2"/><polygon points="380.19,11.50 360.27,23.00 340.35,11.50 340.35,-11.50 360.27,-23.00 380.19,-11.50" fill="none" stroke="#7aa2ff" stroke-opacity="0.10" stroke-width="2"/><polygon points="-2.60,50.50 -22.52,62.00 -42.44,50.50 -42.44,27.50 -22.52,16.00 -2.60,27.50" fill="none" stroke="#7aa2ff" stroke-opacity="0.10" stroke-width="2"/><polygon points="42.44,50.50 22.52,62.00 2.60,50.50 2.60,27.50 22.52,16.00 42.44,27.50" fill="none" stroke="#7aa2ff" stroke-opacity="0.10" stroke-width="2"/><polygon points="87.47,50.50 67.55,62.00 47.63,50.50 47.63,27.50 67.55,16.00 87.47,27.50" fill="none" stroke="#7aa2ff" stroke-opacity="0.10" stroke-width="2"/><polygon points="132.50,50.50 112.58,62.00 92.66,50.50 92.66,27.50 112.58,16.00 132.50,27.50" fill="none" stroke="#7aa2ff" stroke-opacity="0.10" stroke-width="2"/><polygon points="177.54,50.50 157.62,62.00 137.70,50.50 137.70,27.50 157.62,16.00 177.54,27.50" fill="none" stroke="#7aa2ff" stroke-opacity="0.10" stroke-width="2"/><polygon points="222.57,50.50 202.65,62.00 182.73,50.50 182.73,27.50 202.65,16.00 222.57,27.50" fill="none" stroke="#7aa2ff" stroke-opacity="0.10" stroke-width="2"/><polygon points="267.60,50.50 247.68,62.00 227.76,50.50 227.76,27.50 247.68,16.00 267.60,27.50" fill="none" stroke="#7aa2ff" stroke-opacity="0.10" stroke-width="2"/><polygon points="312.64,50.50 292.72,62.00 272.80,50.50 272.80,27.50 292.72,16.00 312.64,27.50" fill="none" stroke="#7aa2ff" stroke-opacity="0.10" stroke-width="2"/><polygon points="357.67,50.50 337.75,62.00 317.83,50.50 317.83,27.50 337.75,16.00 357.67,27.50" fill="none" stroke="#7aa2ff" stroke-opacity="0.10" stroke-width="2"/><polygon points="402.70,50.50 382.78,62.00 362.86,50.50 362.86,27.50 382.78,16.00 402.70,27.50" fill="none" stroke="#7aa2ff" stroke-opacity="0.10" stroke-width="2"/><polygon points="-25.11,89.50 -45.03,101.00 -64.95,89.50 -64.95,66.50 -45.03,55.00 -25.11,66.50" fill="none" stroke="#7aa2ff" stroke-opacity="0.10" stroke-width="2"/><polygon points="19.92,89.50 0.00,101.00 -19.92,89.50 -19.92,66.50 -0.00,55.00 19.92,66.50" fill="none" stroke="#7aa2ff" stroke-opacity="0.10" stroke-width="2"/><polygon points="64.95,89.50 45.03,101.00 25.11,89.50 25.11,66.50 45.03,55.00 64.95,66.50" fill="none" stroke="#7aa2ff" stroke-opacity="0.10" stroke-width="2"/><polygon points="109.99,89.50 90.07,101.00 70.15,89.50 70.15,66.50 90.07,55.00 109.99,66.50" fill="none" stroke="#7aa2ff" stroke-opacity="0.10" stroke-width="2"/><polygon points="155.02,89.50 135.10,101.00 115.18,89.50 115.18,66.50 135.10,55.00 155.02,66.50" fill="none" stroke="#7aa2ff" stroke-opacity="0.10" stroke-width="2"/><polygon points="200.05,89.50 180.13,101.00 160.21,89.50 160.21,66.50 180.13,55.00 200.05,66.50" fill="none" stroke="#7aa2ff" stroke-opacity="0.10" stroke-width="2"/><polygon points="245.09,89.50 225.17,101.00 205.25,89.50 205.25,66.50 225.17,55.00 245.09,66.50" fill="none" stroke="#7aa2ff" stroke-opacity="0.10" stroke-width="2"/><polygon points="290.12,89.50 270.20,101.00 250.28,89.50 250.28,66.50 270.20,55.00 290.12,66.50" fill="none" stroke="#7aa2ff" stroke-opacity="0.10" stroke-width="2"/><polygon points="335.15,89.50 315.23,101.00 295.31,89.50 295.31,66.50 315.23,55.00 335.15,66.50" fill="none" stroke="#7aa2ff" stroke-opacity="0.10" stroke-width="2"/><polygon points="380.19,89.50 360.27,101.00 340.35,89.50 340.35,66.50 360.27,55.00 380.19,66.50" fill="none" stroke="#7aa2ff" stroke-opacity="0.10" stroke-width="2"/><polygon points="-2.60,128.50 -22.52,140.00 -42.44,128.50 -42.44,105.50 -22.52,94.00 -2.60,105.50" fill="none" stroke="#7aa2ff" stroke-opacity="0.10" stroke-width="2"/><polygon points="42.44,128.50 22.52,140.00 2.60,128.50 2.60,105.50 22.52,94.00 42.44,105.50" fill="none" stroke="#7aa2ff" stroke-opacity="0.10" stroke-width="2"/><polygon points="87.47,128.50 67.55,140.00 47.63,128.50 47.63,105.50 67.55,94.00 87.47,105.50" fill="none" stroke="#7aa2ff" stroke-opacity="0.10" stroke-width="2"/><polygon points="132.50,128.50 112.58,140.00 92.66,128.50 92.66,105.50 112.58,94.00 132.50,105.50" fill="none" stroke="#7aa2ff" stroke-opacity="0.10" stroke-width="2"/><polygon points="177.54,128.50 157.62,140.00 137.70,128.50 137.70,105.50 157.62,94.00 177.54,105.50" fill="none" stroke="#7aa2ff" stroke-opacity="0.10" stroke-width="2"/><polygon points="222.57,128.50 202.65,140.00 182.73,128.50 182.73,105.50 202.65,94.00 222.57,105.50" fill="none" stroke="#7aa2ff" stroke-opacity="0.10" stroke-width="2"/><polygon points="267.60,128.50 247.68,140.00 227.76,128.50 227.76,105.50 247.68,94.00 267.60,105.50" fill="none" stroke="#7aa2ff" stroke-opacity="0.10" stroke-width="2"/><polygon points="312.64,128.50 292.72,140.00 272.80,128.50 272.80,105.50 292.72,94.00 312.64,105.50" fill="none" stroke="#7aa2ff" stroke-opacity="0.10" stroke-width="2"/><polygon points="357.67,128.50 337.75,140.00 317.83,128.50 317.83,105.50 337.75,94.00 357.67,105.50" fill="none" stroke="#7aa2ff" stroke-opacity="0.10" stroke-width="2"/><polygon points="402.70,128.50 382.78,140.00 362.86,128.50 362.86,105.50 382.78,94.00 402.70,105.50" fill="none" stroke="#7aa2ff" stroke-opacity="0.10" stroke-width="2"/><polygon points="-25.11,167.50 -45.03,179.00 -64.95,167.50 -64.95,144.50 -45.03,133.00 -25.11,144.50" fill="none" stroke="#7aa2ff" stroke-opacity="0.10" stroke-width="2"/><polygon points="19.92,167.50 0.00,179.00 -19.92,167.50 -19.92,144.50 -0.00,133.00 19.92,144.50" fill="none" stroke="#7aa2ff" stroke-opacity="0.10" stroke-width="2"/><polygon points="64.95,167.50 45.03,179.00 25.11,167.50 25.11,144.50 45.03,133.00 64.95,144.50" fill="none" stroke="#7aa2ff" stroke-opacity="0.10" stroke-width="2"/><polygon points="109.99,167.50 90.07,179.00 70.15,167.50 70.15,144.50 90.07,133.00 109.99,144.50" fill="none" stroke="#7aa2ff" stroke-opacity="0.10" stroke-width="2"/><polygon points="155.02,167.50 135.10,179.00 115.18,167.50 115.18,144.50 135.10,133.00 155.02,144.50" fill="none" stroke="#7aa2ff" stroke-opacity="0.10" stroke-width="2"/><polygon points="200.05,167.50 180.13,179.00 160.21,167.50 160.21,144.50 180.13,133.00 200.05,144.50" fill="none" stroke="#7aa2ff" stroke-opacity="0.10" stroke-width="2"/><polygon points="245.09,167.50 225.17,179.00 205.25,167.50 205.25,144.50 225.17,133.00 245.09,144.50" fill="none" stroke="#7aa2ff" stroke-opacity="0.10" stroke-width="2"/><polygon points="290.12,167.50 270.20,179.00 250.28,167.50 250.28,144.50 270.20,133.00 290.12,144.50" fill="none" stroke="#7aa2ff" stroke-opacity="0.10" stroke-width="2"/><polygon points="335.15,167.50 315.23,179.00 295.31,167.50 295.31,144.50 315.23,133.00 335.15,144.50" fill="none" stroke="#7aa2ff" stroke-opacity="0.10" stroke-width="2"/><polygon points="380.19,167.50 360.27,179.00 340.35,167.50 340.35,144.50 360.27,133.00 380.19,144.50" fill="none" stroke="#7aa2ff" stroke-opacity="0.10" stroke-width="2"/><polygon points="-2.60,206.50 -22.52,218.00 -42.44,206.50 -42.44,183.50 -22.52,172.00 -2.60,183.50" fill="none" stroke="#7aa2ff" stroke-opacity="0.10" stroke-width="2"/><polygon points="42.44,206.50 22.52,218.00 2.60,206.50 2.60,183.50 22.52,172.00 42.44,183.50" fill="none" stroke="#7aa2ff" stroke-opacity="0.10" stroke-width="2"/><polygon points="87.47,206.50 67.55,218.00 47.63,206.50 47.63,183.50 67.55,172.00 87.47,183.50" fill="none" stroke="#7aa2ff" stroke-opacity="0.10" stroke-width="2"/><polygon points="132.50,206.50 112.58,218.00 92.66,206.50 92.66,183.50 112.58,172.00 132.50,183.50" fill="none" stroke="#7aa2ff" stroke-opacity="0.10" stroke-width="2"/><polygon points="177.54,206.50 157.62,218.00 137.70,206.50 137.70,183.50 157.62,172.00 177.54,183.50" fill="none" stroke="#7aa2ff" stroke-opacity="0.10" stroke-width="2"/><polygon points="222.57,206.50 202.65,218.00 182.73,206.50 182.73,183.50 202.65,172.00 222.57,183.50" fill="none" stroke="#7aa2ff" stroke-opacity="0.10" stroke-width="2"/><polygon points="267.60,206.50 247.68,218.00 227.76,206.50 227.76,183.50 247.68,172.00 267.60,183.50" fill="none" stroke="#7aa2ff" stroke-opacity="0.10" stroke-width="2"/><polygon points="312.64,206.50 292.72,218.00 272.80,206.50 272.80,183.50 292.72,172.00 312.64,183.50" fill="none" stroke="#7aa2ff" stroke-opacity="0.10" stroke-width="2"/><polygon points="357.67,206.50 337.75,218.00 317.83,206.50 317.83,183.50 337.75,172.00 357.67,183.50" fill="none" stroke="#7aa2ff" stroke-opacity="0.10" stroke-width="2"/><polygon points="402.70,206.50 382.78,218.00 362.86,206.50 362.86,183.50 382.78,172.00 402.70,183.50" fill="none" stroke="#7aa2ff" stroke-opacity="0.10" stroke-width="2"/><polygon points="-25.11,245.50 -45.03,257.00 -64.95,245.50 -64.95,222.50 -45.03,211.00 -25.11,222.50" fill="none" stroke="#7aa2ff" stroke-opacity="0.10" stroke-width="2"/><polygon points="19.92,245.50 0.00,257.00 -19.92,245.50 -19.92,222.50 -0.00,211.00 19.92,222.50" fill="none" stroke="#7aa2ff" stroke-opacity="0.10" stroke-width="2"/><polygon points="64.95,245.50 45.03,257.00 25.11,245.50 25.11,222.50 45.03,211.00 64.95,222.50" fill="none" stroke="#7aa2ff" stroke-opacity="0.10" stroke-width="2"/><polygon points="109.99,245.50 90.07,257.00 70.15,245.50 70.15,222.50 90.07,211.00 109.99,222.50" fill="none" stroke="#7aa2ff" stroke-opacity="0.10" stroke-width="2"/><polygon points="155.02,245.50 135.10,257.00 115.18,245.50 115.18,222.50 135.10,211.00 155.02,222.50" fill="none" stroke="#7aa2ff" stroke-opacity="0.10" stroke-width="2"/><polygon points="200.05,245.50 180.13,257.00 160.21,245.50 160.21,222.50 180.13,211.00 200.05,222.50" fill="none" stroke="#7aa2ff" stroke-opacity="0.10" stroke-width="2"/><polygon points="245.09,245.50 225.17,257.00 205.25,245.50 205.25,222.50 225.17,211.00 245.09,222.50" fill="none" stroke="#7aa2ff" stroke-opacity="0.10" stroke-width="2"/><polygon points="290.12,245.50 270.20,257.00 250.28,245.50 250.28,222.50 270.20,211.00 290.12,222.50" fill="none" stroke="#7aa2ff" stroke-opacity="0.10" stroke-width="2"/><polygon points="335.15,245.50 315.23,257.00 295.31,245.50 295.31,222.50 315.23,211.00 335.15,222.50" fill="none" stroke="#7aa2ff" stroke-opacity="0.10" stroke-width="2"/><polygon points="380.19,245.50 360.27,257.00 340.35,245.50 340.35,222.50 360.27,211.00 380.19,222.50" fill="none" stroke="#7aa2ff" stroke-opacity="0.10" stroke-width="2"/></g>
  <polygon points="291.96,165.00 240.00,195.00 188.04,165.00 188.04,105.00 240.00,75.00 291.96,105.00" fill="none" stroke="url(#a2)" stroke-width="4" stroke-linejoin="round"/>
  <text x="240" y="137" font-family="Syne, sans-serif" font-size="64" font-weight="800" fill="url(#a2)" text-anchor="middle" dominant-baseline="central">C</text>
</svg>